<?xml version="1.0" encoding="UTF-8"?>
<svg width="256px" height="40px" viewBox="0 0 256 40" version="1.1" xmlns="http://www.w3.org/2000/svg" xmlns:xlink="http://www.w3.org/1999/xlink">
    <title>Imagotype</title>
    <g id="General-Assets-🧩" stroke="none" stroke-width="1" fill="none" fill-rule="evenodd">
        <g id="Branding/Imagotype" fill="#006AFF">
            <path d="M56.4556748,35 L60.701581,35 L60.701581,18.0414018 L56.4556748,18.0414018 L56.4556748,35 Z M56.7436477,15.3015118 C56.2477414,14.8215717 56,14.225386 56,13.5095358 C56,12.7962498 56.2477414,12.1992094 56.7436477,11.7192692 C57.2382835,11.2406111 57.8608131,11 58.6091191,11 C59.3565782,11 59.9791078,11.2406111 60.4750141,11.7192692 C60.9696499,12.1992094 61.2173913,12.7962498 61.2173913,13.5095358 C61.2173913,14.225386 60.9696499,14.8215717 60.4750141,15.3015118 C59.9791078,15.781452 59.3565782,16.020781 58.6091191,16.020781 C57.8608131,16.020781 57.2382835,15.781452 56.7436477,15.3015118 L56.7436477,15.3015118 Z M79.3087349,19.7641287 C80.5813181,21.0344589 81.2173913,22.8090033 81.2173913,25.0869102 L81.2173913,35 L76.8360877,35 L76.8360877,25.6665011 C76.8360877,24.3237752 76.4922761,23.2919247 75.8033425,22.5705236 C75.1157194,21.8486967 74.1764629,21.4875703 72.9868837,21.4875703 C71.7772088,21.4875703 70.8226622,21.8486967 70.1241175,22.5705236 C69.4255728,23.2919247 69.0756452,24.3237752 69.0756452,25.6665011 L69.0756452,35 L64.6956522,35 L64.6956522,18.1015845 L69.0756452,18.1015845 L69.0756452,20.2065937 C69.6606054,19.4741203 70.4054576,18.8996398 71.3132598,18.4818745 C72.2210621,18.0658126 73.2171108,17.8571429 74.3022796,17.8571429 C76.3673332,17.8571429 78.0361516,18.4929468 79.3087349,19.7641287 M88.3259128,34.2664837 C87.2370035,33.7764965 86.3748272,33.112022 85.739806,32.2730601 C85.1047848,31.4340983 84.7572965,30.5047545 84.6956522,29.4854472 L88.960934,29.4854472 C89.041156,30.1252341 89.3582444,30.6549726 89.9126213,31.0742443 C90.4674203,31.4939344 91.1577525,31.7035703 91.9844622,31.7035703 C92.7909053,31.7035703 93.4212821,31.5441466 93.8751702,31.2244624 C94.3290583,30.9043597 94.5549469,30.4942936 94.5549469,29.9951008 C94.5549469,29.4561567 94.2783918,29.0506934 93.7240149,28.7812213 C93.1692158,28.5113309 92.2871951,28.2171712 91.0775304,27.897487 C89.8277547,27.5974692 88.8034453,27.2882458 88.00798,26.9681432 C87.2108258,26.6480405 86.5264047,26.1584717 85.951339,25.4998553 C85.3766955,24.8399835 85.0895849,23.9508095 85.0895849,22.8314963 C85.0895849,21.9126134 85.3568511,21.0736515 85.8913835,20.3141923 C86.4246493,19.5551515 87.1918258,18.9551159 88.1899575,18.5157593 C89.1880891,18.0759843 90.3622872,17.8571429 91.7125516,17.8571429 C93.7083927,17.8571429 95.3014345,18.3513144 96.4908325,19.3404944 C97.6802305,20.3296744 98.3355183,21.6632262 98.4571181,23.3411499 L94.4037915,23.3411499 C94.3434139,22.6816966 94.0668588,22.1578162 93.5724374,21.7674165 C93.078016,21.3782721 92.418506,21.1836999 91.5917962,21.1836999 C90.8254642,21.1836999 90.2356207,21.3234571 89.8231103,21.60339 C89.408911,21.8833229 89.2020224,22.2724673 89.2020224,22.7716601 C89.2020224,23.3319444 89.4849109,23.7562373 90.0485766,24.0453758 C90.6139312,24.3349327 91.4900408,24.6303477 92.6807055,24.9303655 C93.8903702,25.2291279 94.8885019,25.5396066 95.6751005,25.858454 C96.461277,26.1781382 97.1410537,26.6727282 97.7156971,27.3418055 C98.2903406,28.0121381 98.5871624,28.8958725 98.6086957,29.9951008 C98.6086957,30.9537351 98.3401628,31.8136187 97.806897,32.5730779 C97.2723645,33.3325371 96.5060325,33.9267146 95.508323,34.3556103 C94.5101914,34.7857614 93.3452822,35 92.0152844,35 C90.6434867,35 89.4139776,34.7552156 88.3259128,34.2664837 M106.874076,21.3860707 L106.874076,29.696434 C106.874076,30.2761462 107.015789,30.6943703 107.299213,30.9528379 C107.582638,31.2121715 108.061027,31.3407559 108.733941,31.3407559 L110.782609,31.3407559 L110.782609,35 L108.008215,35 C104.288046,35 102.428181,33.2223313 102.428181,29.6661279 L102.428181,21.3860707 L100.347826,21.3860707 L100.347826,17.8203426 L102.428181,17.8203426 L102.428181,13.5714286 L106.874076,13.5714286 L106.874076,17.8203426 L110.782609,17.8203426 L110.782609,21.3860707 L106.874076,21.3860707 Z M120.756584,18.6202779 C121.650509,18.112231 122.673677,17.8571429 123.826087,17.8571429 L123.826087,22.3414128 L122.684447,22.3414128 C121.327404,22.3414128 120.302944,22.6561208 119.614083,23.2872403 C118.925222,23.9166563 118.580145,25.0153663 118.580145,26.581241 L118.580145,35 L114.26087,35 L114.26087,18.1015845 L118.580145,18.1015845 L118.580145,20.7240094 C119.136317,19.8297106 119.861366,19.1283248 120.756584,18.6202779 M142.956522,17.8571429 L142.956522,34.7862582 L138.544638,34.7862582 L138.544638,32.6475607 C137.981958,33.3800849 137.245406,33.9560358 136.338914,34.3741334 C135.431112,34.7909512 134.444674,35 133.381785,35 C132.024887,35 130.825697,34.7205572 129.783341,34.1603916 C128.739674,33.5997995 127.921429,32.7742699 127.326858,31.6846562 C126.732287,30.5950426 126.434783,29.29638 126.434783,27.7882421 L126.434783,17.8571429 L130.816086,17.8571429 L130.816086,27.1777342 C130.816086,28.5220461 131.159898,29.5553446 131.848831,30.2797628 C132.536455,31.0024745 133.475711,31.3634037 134.66398,31.3634037 C135.873654,31.3634037 136.823396,31.0024745 137.511892,30.2797628 C138.200826,29.5553446 138.544638,28.5220461 138.544638,27.1777342 L138.544638,17.8571429 L142.956522,17.8571429 Z M173.230442,19.7641287 C174.496962,21.0344589 175.130435,22.8090033 175.130435,25.0869102 L175.130435,35 L170.872752,35 L170.872752,25.6665011 C170.872752,24.3437905 170.538184,23.3323811 169.869046,22.6314211 C169.200758,21.9300353 168.287488,21.5782778 167.131783,21.5782778 C165.977351,21.5782778 165.058986,21.9300353 164.380084,22.6314211 C163.699907,23.3323811 163.361093,24.3437905 163.361093,25.6665011 L163.361093,35 L159.10341,35 L159.10341,25.6665011 C159.10341,24.3437905 158.768842,23.3323811 158.099705,22.6314211 C157.431416,21.9300353 156.518146,21.5782778 155.362441,21.5782778 C154.186356,21.5782778 153.259074,21.9300353 152.580172,22.6314211 C151.900845,23.3323811 151.560757,24.3437905 151.560757,25.6665011 L151.560757,35 L147.304348,35 L147.304348,18.1015845 L151.560757,18.1015845 L151.560757,20.1444186 C152.109313,19.433664 152.812841,18.8745143 153.675162,18.4678212 C154.537058,18.0611282 155.48472,17.8571429 156.518146,17.8571429 C157.83689,17.8571429 159.012975,18.1373565 160.045977,18.6956545 C161.080677,19.2560818 161.881009,20.054137 162.449096,21.0902461 C162.996379,20.1146087 163.791616,19.3323101 164.835657,18.7420729 C165.879698,18.1526873 167.010353,17.8571429 168.226773,17.8571429 C170.294475,17.8571429 171.963072,18.4929468 173.230442,19.7641287 M191.423039,24.8695213 C191.401889,23.791241 190.991209,22.9267757 190.192764,22.2773807 C189.391674,21.6284041 188.413006,21.3037065 187.256758,21.3037065 C186.162201,21.3037065 185.241697,21.617525 184.495248,22.2468357 C183.748358,22.8774016 183.290529,23.7514906 183.121763,24.8695213 L191.423039,24.8695213 Z M195.873095,27.6876111 L183.090918,27.6876111 C183.195791,28.8863977 183.637315,29.8253426 184.415932,30.5048642 C185.194989,31.1843858 186.152507,31.5233097 187.287603,31.5233097 C188.928999,31.5233097 190.097585,30.8538303 190.791157,29.5157084 L195.557154,29.5157084 C195.052617,31.1140904 194.084965,32.4279438 192.653315,33.4564315 C191.222987,34.4853377 189.465703,35 187.382782,35 C185.699525,35 184.190323,34.6460128 182.853852,33.9359462 C181.517381,33.2271348 180.475701,32.2224973 179.729251,30.9241257 C178.982802,29.625754 178.608696,28.1273754 178.608696,26.428153 C178.608696,24.7101015 178.976633,23.2020991 179.713388,21.9024722 C180.449703,20.6041006 181.480367,19.6057394 182.807144,18.9061334 C184.132158,18.2065274 185.657664,17.8571429 187.382782,17.8571429 C189.045329,17.8571429 190.533381,18.1973221 191.848701,18.8755884 C193.164461,19.55511 194.184991,20.5195788 194.91073,21.7677395 C195.636029,23.016737 196,24.4498413 196,26.0683078 C196,26.6683287 195.956817,27.2072597 195.873095,27.6876111 L195.873095,27.6876111 Z M213.221778,19.7641287 C214.494362,21.0344589 215.130435,22.8090033 215.130435,25.0869102 L215.130435,35 L210.749131,35 L210.749131,25.6665011 C210.749131,24.3237752 210.40532,23.2919247 209.716386,22.5705236 C209.028763,21.8486967 208.08907,21.4875703 206.899927,21.4875703 C205.690252,21.4875703 204.735706,21.8486967 204.037161,22.5705236 C203.338616,23.2919247 202.988689,24.3237752 202.988689,25.6665011 L202.988689,35 L198.608696,35 L198.608696,18.1015845 L202.988689,18.1015845 L202.988689,20.2065937 C203.573649,19.4741203 204.318501,18.8996398 205.226303,18.4818745 C206.134106,18.0658126 207.130154,17.8571429 208.215323,17.8571429 C210.280377,17.8571429 211.949195,18.4929468 213.221778,19.7641287 M224.265381,21.3860707 L224.265381,29.696434 C224.265381,30.2761462 224.407093,30.6943703 224.690518,30.9528379 C224.973942,31.2121715 225.452332,31.3407559 226.125245,31.3407559 L228.173913,31.3407559 L228.173913,35 L225.39952,35 C221.67979,35 219.819485,33.2223313 219.819485,29.6661279 L219.819485,21.3860707 L217.73913,21.3860707 L217.73913,17.8203426 L219.819485,17.8203426 L219.819485,13.5714286 L224.265381,13.5714286 L224.265381,17.8203426 L228.173913,17.8203426 L228.173913,21.3860707 L224.265381,21.3860707 Z M242.451479,23.8054674 C242.048371,23.0765717 241.506405,22.5175564 240.823898,22.1275846 C240.140549,21.7384497 239.407549,21.542627 238.624054,21.542627 C237.840139,21.542627 237.116816,21.7338471 236.453244,22.1121029 C235.789673,22.4920325 235.252335,23.047282 234.841232,23.7761777 C234.428866,24.5063287 234.222684,25.3699571 234.222684,26.3683183 C234.222684,27.3679347 234.428866,28.2420238 234.841232,28.9910039 C235.252335,29.7408208 235.794722,30.3148994 236.468393,30.7144949 C237.141642,31.1140904 237.859074,31.3132606 238.624054,31.3132606 C239.407549,31.3132606 240.140549,31.1186931 240.823898,30.7299766 C241.506405,30.3395865 242.048371,29.7805711 242.451479,29.0504202 C242.853325,28.3215245 243.053617,27.4474354 243.053617,26.428153 C243.053617,25.4097075 242.853325,24.5356184 242.451479,23.8054674 M230.922918,21.9024722 C231.595747,20.6041006 232.510525,19.6057394 233.665149,18.9061334 C234.821034,18.2065274 236.11157,17.8571429 237.538439,17.8571429 C238.784372,17.8571429 239.874195,18.1069424 240.80875,18.6061229 C241.743305,19.1053035 242.491453,19.7346142 243.053617,20.4940549 L243.053617,18.1266083 L247.304348,18.1266083 L247.304348,34.7305345 L243.053617,34.7305345 L243.053617,32.3024164 C242.511651,33.0815231 241.76224,33.7263154 240.80875,34.2359566 C239.854418,34.7455978 238.753655,35 237.508143,35 C236.102313,35 234.821034,34.6401548 233.665149,33.9208829 C232.510525,33.2024478 231.595747,32.1873496 230.922918,30.8785174 C230.248827,29.5709404 229.913043,28.0675407 229.913043,26.3683183 C229.913043,24.6904355 230.248827,23.2020991 230.922918,21.9024722 M251.652174,35 L256,35 L256,12.7142857 L251.652174,12.7142857 L251.652174,35 Z" id="logo"></path>
            <g id="Tint-–-Icon">
                <path d="M0,40 L9.56521739,40 L9.56521739,11.3043478 L0,11.3043478 L0,40 Z M20.6729512,11.3043478 L26.9565217,40 L17.5879183,40 L11.3043478,11.3043478 L20.6729512,11.3043478 Z M33.7164295,11.3043478 L40,40 L30.6313966,40 L24.3478261,11.3043478 L33.7164295,11.3043478 Z M4.7826087,0 C2.14108437,0 0,2.14108437 0,4.7826087 C0,7.42413302 2.14108437,9.56521739 4.7826087,9.56521739 C7.42413302,9.56521739 9.56521739,7.42413302 9.56521739,4.7826087 C9.56521739,2.14108437 7.42413302,0 4.7826087,0" id="vector"></path>
            </g>
        </g>
    </g>
</svg>